<mxfile host="app.diagrams.net" agent="Mozilla/5.0 (Windows NT 10.0; Win64; x64) AppleWebKit/537.36 (KHTML, like Gecko) Chrome/130.0.0.0 Safari/537.36" version="24.8.6" pages="2">
  <diagram name="페이지-1" id="Nfai-yFpdl8lFwudirBK">
    <mxGraphModel dx="1434" dy="780" grid="1" gridSize="10" guides="1" tooltips="1" connect="1" arrows="1" fold="1" page="1" pageScale="1" pageWidth="827" pageHeight="1169" math="0" shadow="0">
      <root>
        <mxCell id="0" />
        <mxCell id="1" parent="0" />
        <mxCell id="1O64mJNsocr18IeTswXn-27" value="" style="endArrow=none;dashed=1;html=1;dashPattern=1 3;strokeWidth=2;rounded=0;entryX=0.5;entryY=1;entryDx=0;entryDy=0;" edge="1" parent="1" target="EB5yxiJkmNpRtnvnN5DQ-11">
          <mxGeometry width="50" height="50" relative="1" as="geometry">
            <mxPoint x="700" y="950" as="sourcePoint" />
            <mxPoint x="730" y="350" as="targetPoint" />
          </mxGeometry>
        </mxCell>
        <mxCell id="EB5yxiJkmNpRtnvnN5DQ-1" value="사용자" style="shape=umlActor;verticalLabelPosition=bottom;verticalAlign=top;html=1;outlineConnect=0;" parent="1" vertex="1">
          <mxGeometry x="200" y="160" width="40" height="80" as="geometry" />
        </mxCell>
        <mxCell id="EB5yxiJkmNpRtnvnN5DQ-2" value="" style="endArrow=none;dashed=1;html=1;dashPattern=1 3;strokeWidth=2;rounded=0;" parent="1" edge="1">
          <mxGeometry width="50" height="50" relative="1" as="geometry">
            <mxPoint x="220" y="940" as="sourcePoint" />
            <mxPoint x="220" y="260" as="targetPoint" />
          </mxGeometry>
        </mxCell>
        <mxCell id="EB5yxiJkmNpRtnvnN5DQ-6" value="PlannerService" style="rounded=0;whiteSpace=wrap;html=1;" parent="1" vertex="1">
          <mxGeometry x="430" y="180" width="120" height="60" as="geometry" />
        </mxCell>
        <mxCell id="EB5yxiJkmNpRtnvnN5DQ-11" value="PlannerDaoImpl" style="rounded=0;whiteSpace=wrap;html=1;" parent="1" vertex="1">
          <mxGeometry x="640" y="180" width="120" height="60" as="geometry" />
        </mxCell>
        <mxCell id="Lxr2ecq7bs_axtGGOxlW-1" value="여행 계획 조회(본인 작성)" style="text;html=1;align=center;verticalAlign=middle;resizable=0;points=[];autosize=1;strokeColor=none;fillColor=none;" vertex="1" parent="1">
          <mxGeometry x="261" y="240" width="160" height="30" as="geometry" />
        </mxCell>
        <mxCell id="Lxr2ecq7bs_axtGGOxlW-2" value="여행 계획 존재 여부" style="shape=umlFrame;whiteSpace=wrap;html=1;pointerEvents=0;width=66;height=40;" vertex="1" parent="1">
          <mxGeometry x="262" y="340" width="198" height="120" as="geometry" />
        </mxCell>
        <mxCell id="1O64mJNsocr18IeTswXn-1" value="로그인 상태" style="shape=umlFrame;whiteSpace=wrap;html=1;pointerEvents=0;width=110;height=30;" vertex="1" parent="1">
          <mxGeometry x="90" y="280" width="760" height="610" as="geometry" />
        </mxCell>
        <mxCell id="1O64mJNsocr18IeTswXn-2" value="비회원 상태" style="shape=umlFrame;whiteSpace=wrap;html=1;pointerEvents=0;width=110;height=30;" vertex="1" parent="1">
          <mxGeometry x="120" y="570" width="700" height="290" as="geometry" />
        </mxCell>
        <mxCell id="1O64mJNsocr18IeTswXn-3" value="" style="endArrow=classic;html=1;rounded=0;entryX=0.125;entryY=0.115;entryDx=0;entryDy=0;entryPerimeter=0;" edge="1" parent="1" target="EB5yxiJkmNpRtnvnN5DQ-8">
          <mxGeometry width="50" height="50" relative="1" as="geometry">
            <mxPoint x="220" y="320" as="sourcePoint" />
            <mxPoint x="780" y="440" as="targetPoint" />
          </mxGeometry>
        </mxCell>
        <mxCell id="1O64mJNsocr18IeTswXn-4" value="여행 계획 조회 요청&lt;div&gt;userid, 세션정보&lt;/div&gt;" style="text;html=1;align=center;verticalAlign=middle;resizable=0;points=[];autosize=1;strokeColor=none;fillColor=none;" vertex="1" parent="1">
          <mxGeometry x="280" y="280" width="130" height="40" as="geometry" />
        </mxCell>
        <mxCell id="1O64mJNsocr18IeTswXn-6" value="" style="endArrow=classic;html=1;rounded=0;exitX=1;exitY=0.115;exitDx=0;exitDy=0;exitPerimeter=0;" edge="1" parent="1">
          <mxGeometry width="50" height="50" relative="1" as="geometry">
            <mxPoint x="500" y="350.0000000000001" as="sourcePoint" />
            <mxPoint x="690" y="350.1" as="targetPoint" />
          </mxGeometry>
        </mxCell>
        <mxCell id="1O64mJNsocr18IeTswXn-7" value="plannerList(userid)" style="text;html=1;align=center;verticalAlign=middle;resizable=0;points=[];autosize=1;strokeColor=none;fillColor=none;" vertex="1" parent="1">
          <mxGeometry x="500" y="240" width="120" height="30" as="geometry" />
        </mxCell>
        <mxCell id="1O64mJNsocr18IeTswXn-8" value="selectAll(userid)" style="text;html=1;align=center;verticalAlign=middle;resizable=0;points=[];autosize=1;strokeColor=none;fillColor=none;" vertex="1" parent="1">
          <mxGeometry x="725" y="240" width="110" height="30" as="geometry" />
        </mxCell>
        <mxCell id="1O64mJNsocr18IeTswXn-10" value="" style="endArrow=open;html=1;rounded=0;dashed=1;endFill=0;" edge="1" parent="1">
          <mxGeometry width="50" height="50" relative="1" as="geometry">
            <mxPoint x="690" y="374.997275612417" as="sourcePoint" />
            <mxPoint x="500" y="375" as="targetPoint" />
          </mxGeometry>
        </mxCell>
        <mxCell id="1O64mJNsocr18IeTswXn-5" value="" style="rounded=0;whiteSpace=wrap;html=1;" vertex="1" parent="1">
          <mxGeometry x="690" y="330" width="20" height="60" as="geometry" />
        </mxCell>
        <mxCell id="1O64mJNsocr18IeTswXn-12" value="여행 계획 정보 확인 요청" style="text;html=1;align=center;verticalAlign=middle;resizable=0;points=[];autosize=1;strokeColor=none;fillColor=none;" vertex="1" parent="1">
          <mxGeometry x="510" y="320" width="160" height="30" as="geometry" />
        </mxCell>
        <mxCell id="1O64mJNsocr18IeTswXn-14" value="여행 계획 정보 전달" style="text;html=1;align=center;verticalAlign=middle;resizable=0;points=[];autosize=1;strokeColor=none;fillColor=none;" vertex="1" parent="1">
          <mxGeometry x="535" y="375" width="130" height="30" as="geometry" />
        </mxCell>
        <mxCell id="1O64mJNsocr18IeTswXn-15" style="edgeStyle=orthogonalEdgeStyle;rounded=0;orthogonalLoop=1;jettySize=auto;html=1;" edge="1" parent="1">
          <mxGeometry relative="1" as="geometry">
            <mxPoint x="500" y="435" as="sourcePoint" />
            <mxPoint x="500" y="455" as="targetPoint" />
            <Array as="points">
              <mxPoint x="520" y="435" />
              <mxPoint x="520" y="455" />
            </Array>
          </mxGeometry>
        </mxCell>
        <mxCell id="1O64mJNsocr18IeTswXn-16" value="여행 계획 정보 null check" style="text;html=1;align=center;verticalAlign=middle;resizable=0;points=[];autosize=1;strokeColor=none;fillColor=none;" vertex="1" parent="1">
          <mxGeometry x="510" y="430" width="160" height="30" as="geometry" />
        </mxCell>
        <mxCell id="1O64mJNsocr18IeTswXn-18" value="" style="endArrow=open;html=1;rounded=0;dashed=1;endFill=0;exitX=0;exitY=0.5;exitDx=0;exitDy=0;" edge="1" parent="1" source="EB5yxiJkmNpRtnvnN5DQ-8">
          <mxGeometry width="50" height="50" relative="1" as="geometry">
            <mxPoint x="470" y="509.997275612417" as="sourcePoint" />
            <mxPoint x="220" y="420" as="targetPoint" />
          </mxGeometry>
        </mxCell>
        <mxCell id="1O64mJNsocr18IeTswXn-19" value="&lt;font style=&quot;font-size: 14px;&quot;&gt;조회 성공&lt;/font&gt;&lt;div&gt;&lt;font style=&quot;font-size: 9px;&quot;&gt;여행정보 조회 페이지로 이동&lt;/font&gt;&lt;/div&gt;" style="rounded=0;whiteSpace=wrap;html=1;" vertex="1" parent="1">
          <mxGeometry x="301" y="400" width="120" height="40" as="geometry" />
        </mxCell>
        <mxCell id="1O64mJNsocr18IeTswXn-20" value="" style="endArrow=open;html=1;rounded=0;dashed=1;endFill=0;exitX=0;exitY=0.5;exitDx=0;exitDy=0;" edge="1" parent="1">
          <mxGeometry width="50" height="50" relative="1" as="geometry">
            <mxPoint x="480" y="489.76" as="sourcePoint" />
            <mxPoint x="220" y="489.76" as="targetPoint" />
          </mxGeometry>
        </mxCell>
        <mxCell id="1O64mJNsocr18IeTswXn-21" value="&lt;font style=&quot;font-size: 13px;&quot;&gt;조회 실패&lt;/font&gt;&lt;div style=&quot;&quot;&gt;&lt;font style=&quot;font-size: 9px;&quot;&gt;message :작성한 여행정보가 없습니다&lt;/font&gt;&lt;/div&gt;" style="rounded=0;whiteSpace=wrap;html=1;" vertex="1" parent="1">
          <mxGeometry x="280.5" y="470" width="161" height="40" as="geometry" />
        </mxCell>
        <mxCell id="1O64mJNsocr18IeTswXn-24" value="" style="endArrow=none;dashed=1;html=1;dashPattern=1 3;strokeWidth=2;rounded=0;entryX=0.5;entryY=1;entryDx=0;entryDy=0;" edge="1" parent="1" source="1O64mJNsocr18IeTswXn-28" target="EB5yxiJkmNpRtnvnN5DQ-6">
          <mxGeometry width="50" height="50" relative="1" as="geometry">
            <mxPoint x="490" y="1122" as="sourcePoint" />
            <mxPoint x="460" y="780" as="targetPoint" />
          </mxGeometry>
        </mxCell>
        <mxCell id="EB5yxiJkmNpRtnvnN5DQ-8" value="" style="rounded=0;whiteSpace=wrap;html=1;" parent="1" vertex="1">
          <mxGeometry x="480" y="290" width="20" height="260" as="geometry" />
        </mxCell>
        <mxCell id="1O64mJNsocr18IeTswXn-29" value="" style="endArrow=none;dashed=1;html=1;dashPattern=1 3;strokeWidth=2;rounded=0;entryX=0.5;entryY=1;entryDx=0;entryDy=0;" edge="1" parent="1" target="1O64mJNsocr18IeTswXn-28">
          <mxGeometry width="50" height="50" relative="1" as="geometry">
            <mxPoint x="490" y="950" as="sourcePoint" />
            <mxPoint x="490" y="240" as="targetPoint" />
          </mxGeometry>
        </mxCell>
        <mxCell id="1O64mJNsocr18IeTswXn-28" value="" style="rounded=0;whiteSpace=wrap;html=1;" vertex="1" parent="1">
          <mxGeometry x="480" y="580" width="20" height="260" as="geometry" />
        </mxCell>
        <mxCell id="1O64mJNsocr18IeTswXn-30" value="" style="endArrow=classic;html=1;rounded=0;" edge="1" parent="1">
          <mxGeometry width="50" height="50" relative="1" as="geometry">
            <mxPoint x="220" y="640" as="sourcePoint" />
            <mxPoint x="480" y="640" as="targetPoint" />
          </mxGeometry>
        </mxCell>
        <mxCell id="1O64mJNsocr18IeTswXn-31" value="여행 계획 조회 요청&lt;div&gt;세션 정보&lt;/div&gt;" style="text;html=1;align=center;verticalAlign=middle;resizable=0;points=[];autosize=1;strokeColor=none;fillColor=none;" vertex="1" parent="1">
          <mxGeometry x="284" y="600" width="130" height="40" as="geometry" />
        </mxCell>
        <mxCell id="1O64mJNsocr18IeTswXn-32" value="여행 계획 존재 여부" style="shape=umlFrame;whiteSpace=wrap;html=1;pointerEvents=0;width=66;height=40;" vertex="1" parent="1">
          <mxGeometry x="261" y="655" width="198" height="120" as="geometry" />
        </mxCell>
        <mxCell id="1O64mJNsocr18IeTswXn-33" value="여행 계획 조회(전체)" style="text;html=1;align=center;verticalAlign=middle;resizable=0;points=[];autosize=1;strokeColor=none;fillColor=none;" vertex="1" parent="1">
          <mxGeometry x="284" y="540" width="130" height="30" as="geometry" />
        </mxCell>
        <mxCell id="1O64mJNsocr18IeTswXn-34" value="" style="endArrow=open;html=1;rounded=0;dashed=1;endFill=0;exitX=0;exitY=0.5;exitDx=0;exitDy=0;" edge="1" parent="1">
          <mxGeometry width="50" height="50" relative="1" as="geometry">
            <mxPoint x="480" y="720" as="sourcePoint" />
            <mxPoint x="220" y="720" as="targetPoint" />
          </mxGeometry>
        </mxCell>
        <mxCell id="1O64mJNsocr18IeTswXn-35" value="&lt;font style=&quot;font-size: 14px;&quot;&gt;조회 성공&lt;/font&gt;&lt;div&gt;&lt;font style=&quot;font-size: 9px;&quot;&gt;여행정보 조회 페이지로 이동&lt;/font&gt;&lt;/div&gt;" style="rounded=0;whiteSpace=wrap;html=1;" vertex="1" parent="1">
          <mxGeometry x="301" y="700" width="120" height="40" as="geometry" />
        </mxCell>
        <mxCell id="1O64mJNsocr18IeTswXn-36" value="" style="endArrow=classic;html=1;rounded=0;exitX=1;exitY=0.115;exitDx=0;exitDy=0;exitPerimeter=0;" edge="1" parent="1">
          <mxGeometry width="50" height="50" relative="1" as="geometry">
            <mxPoint x="500" y="660.0000000000001" as="sourcePoint" />
            <mxPoint x="690" y="660.1" as="targetPoint" />
          </mxGeometry>
        </mxCell>
        <mxCell id="1O64mJNsocr18IeTswXn-37" value="" style="endArrow=open;html=1;rounded=0;dashed=1;endFill=0;" edge="1" parent="1">
          <mxGeometry width="50" height="50" relative="1" as="geometry">
            <mxPoint x="690" y="684.9972756124171" as="sourcePoint" />
            <mxPoint x="500" y="685" as="targetPoint" />
          </mxGeometry>
        </mxCell>
        <mxCell id="1O64mJNsocr18IeTswXn-38" value="" style="rounded=0;whiteSpace=wrap;html=1;" vertex="1" parent="1">
          <mxGeometry x="690" y="640" width="20" height="60" as="geometry" />
        </mxCell>
        <mxCell id="1O64mJNsocr18IeTswXn-39" value="여행 계획 정보 확인 요청" style="text;html=1;align=center;verticalAlign=middle;resizable=0;points=[];autosize=1;strokeColor=none;fillColor=none;" vertex="1" parent="1">
          <mxGeometry x="510" y="630" width="160" height="30" as="geometry" />
        </mxCell>
        <mxCell id="1O64mJNsocr18IeTswXn-40" value="여행 계획 정보 전달" style="text;html=1;align=center;verticalAlign=middle;resizable=0;points=[];autosize=1;strokeColor=none;fillColor=none;" vertex="1" parent="1">
          <mxGeometry x="535" y="685" width="130" height="30" as="geometry" />
        </mxCell>
        <mxCell id="1O64mJNsocr18IeTswXn-42" value="" style="endArrow=open;html=1;rounded=0;dashed=1;endFill=0;exitX=0;exitY=0.5;exitDx=0;exitDy=0;" edge="1" parent="1">
          <mxGeometry width="50" height="50" relative="1" as="geometry">
            <mxPoint x="479" y="809.76" as="sourcePoint" />
            <mxPoint x="219" y="809.76" as="targetPoint" />
          </mxGeometry>
        </mxCell>
        <mxCell id="1O64mJNsocr18IeTswXn-43" value="&lt;font style=&quot;font-size: 13px;&quot;&gt;조회 실패&lt;/font&gt;&lt;div style=&quot;&quot;&gt;&lt;font style=&quot;font-size: 9px;&quot;&gt;message :조회가능한 여행정보가 없습니다&lt;/font&gt;&lt;/div&gt;" style="rounded=0;whiteSpace=wrap;html=1;" vertex="1" parent="1">
          <mxGeometry x="269.75" y="790" width="180.5" height="50" as="geometry" />
        </mxCell>
        <mxCell id="1O64mJNsocr18IeTswXn-44" style="edgeStyle=orthogonalEdgeStyle;rounded=0;orthogonalLoop=1;jettySize=auto;html=1;" edge="1" parent="1">
          <mxGeometry relative="1" as="geometry">
            <mxPoint x="500" y="735" as="sourcePoint" />
            <mxPoint x="500" y="755" as="targetPoint" />
            <Array as="points">
              <mxPoint x="520" y="735" />
              <mxPoint x="520" y="755" />
            </Array>
          </mxGeometry>
        </mxCell>
        <mxCell id="1O64mJNsocr18IeTswXn-45" value="여행 계획 정보 null check" style="text;html=1;align=center;verticalAlign=middle;resizable=0;points=[];autosize=1;strokeColor=none;fillColor=none;" vertex="1" parent="1">
          <mxGeometry x="510" y="730" width="160" height="30" as="geometry" />
        </mxCell>
      </root>
    </mxGraphModel>
  </diagram>
  <diagram id="0m79JZQ0VNBe5McSHrBL" name="페이지-2">
    <mxGraphModel dx="712" dy="779" grid="1" gridSize="10" guides="1" tooltips="1" connect="1" arrows="1" fold="1" page="1" pageScale="1" pageWidth="827" pageHeight="1169" math="0" shadow="0">
      <root>
        <mxCell id="0" />
        <mxCell id="1" parent="0" />
        <mxCell id="MTqPJXXKgOuwlo47O0u3-2" value="요청 종류&lt;span style=&quot;white-space: pre;&quot;&gt;&#x9;&lt;/span&gt;&lt;span style=&quot;white-space: pre;&quot;&gt;&#x9;&lt;/span&gt;&lt;span style=&quot;white-space: pre;&quot;&gt;&#x9;&lt;/span&gt;요청URI&lt;span style=&quot;white-space: pre;&quot;&gt;&#x9;&lt;/span&gt;&lt;span style=&quot;white-space: pre;&quot;&gt;&#x9;&lt;/span&gt;&lt;span style=&quot;white-space: pre;&quot;&gt;&#x9;&lt;/span&gt;요청파라미터&lt;span style=&quot;white-space: pre;&quot;&gt;&#x9;&lt;/span&gt;&lt;span style=&quot;white-space: pre;&quot;&gt;&#x9;&lt;/span&gt;&lt;span style=&quot;white-space: pre;&quot;&gt;&#x9;&lt;/span&gt;응답형태&lt;span style=&quot;white-space: pre;&quot;&gt;&#x9;&lt;/span&gt;&lt;span style=&quot;white-space: pre;&quot;&gt;&#x9;&lt;/span&gt;&lt;span style=&quot;white-space: pre;&quot;&gt;&#x9;&lt;/span&gt;Description&lt;span style=&quot;white-space: pre;&quot;&gt;&#x9;&lt;/span&gt;&lt;span style=&quot;white-space: pre;&quot;&gt;&#x9;&lt;/span&gt;&lt;span style=&quot;white-space: pre;&quot;&gt;&#x9;&lt;/span&gt;&lt;span style=&quot;white-space: pre;&quot;&gt;&#x9;&lt;/span&gt;관련서비스&lt;div&gt;로그인&lt;span style=&quot;white-space: pre;&quot;&gt;&#x9;&lt;/span&gt;&lt;span style=&quot;white-space: pre;&quot;&gt;&#x9;&lt;/span&gt;&lt;span style=&quot;white-space: pre;&quot;&gt;&#x9;&lt;/span&gt;/user/join&lt;span style=&quot;white-space: pre;&quot;&gt;&#x9;&lt;/span&gt;&lt;span style=&quot;white-space: pre;&quot;&gt;&#x9;&lt;/span&gt;&lt;span style=&quot;white-space: pre;&quot;&gt;&#x9;&lt;/span&gt;UserDto&lt;span style=&quot;white-space: pre;&quot;&gt;&#x9;&lt;/span&gt;&lt;span style=&quot;white-space: pre;&quot;&gt;&#x9;&lt;/span&gt;&lt;span style=&quot;white-space: pre;&quot;&gt;&#x9;&lt;/span&gt;없음&lt;span style=&quot;white-space: pre;&quot;&gt;&#x9;&lt;/span&gt;&lt;span style=&quot;white-space: pre;&quot;&gt;&#x9;&lt;/span&gt;&lt;span style=&quot;white-space: pre;&quot;&gt;&#x9;&lt;/span&gt;&lt;span style=&quot;white-space: pre;&quot;&gt;&lt;/span&gt;&lt;/div&gt;" style="rounded=0;whiteSpace=wrap;html=1;" vertex="1" parent="1">
          <mxGeometry x="80" y="160" width="720" height="280" as="geometry" />
        </mxCell>
      </root>
    </mxGraphModel>
  </diagram>
</mxfile>
